<?xml version="1.0" standalone="no"?>
<!DOCTYPE svg PUBLIC "-//W3C//DTD SVG 20010904//EN"
 "http://www.w3.org/TR/2001/REC-SVG-20010904/DTD/svg10.dtd">
<svg version="1.0" xmlns="http://www.w3.org/2000/svg"
 width="700.000000pt" height="700.000000pt" viewBox="0 0 700.000000 700.000000"
 preserveAspectRatio="xMidYMid meet">
<metadata>
Created by potrace 1.14, written by Peter Selinger 2001-2017
</metadata>
<g transform="translate(0.000000,700.000000) scale(0.100000,-0.100000)"
fill="#000000" stroke="none">
<path d="M2761 6673 c0 -494 3 -440 -28 -447 -132 -32 -336 -112 -527 -208
l-119 -59 -266 265 c-146 146 -269 266 -273 266 -9 0 -1038 -1029 -1038 -1038
0 -4 120 -126 266 -273 l265 -265 -69 -140 c-89 -178 -167 -379 -198 -506 -5
-23 -12 -28 -38 -29 -17 0 -190 0 -383 0 l-353 -1 0 -738 0 -738 381 0 c209 0
381 -1 382 -3 2 -2 13 -38 26 -79 51 -168 109 -309 198 -484 l55 -109 -266
-266 c-146 -146 -266 -269 -266 -273 0 -9 1029 -1038 1038 -1038 4 0 127 120
273 266 l267 266 63 -33 c187 -97 265 -130 445 -190 87 -30 161 -55 163 -56 2
-1 3 -173 3 -382 l0 -381 738 0 739 0 0 342 c0 189 0 361 0 383 l1 40 107 33
c180 56 432 165 542 234 20 12 39 -5 289 -255 147 -147 270 -267 274 -267 10
0 1038 1027 1038 1037 0 4 -120 128 -266 274 l-265 266 59 119 c93 185 142
305 188 459 15 50 28 92 30 94 2 2 174 3 383 3 l381 0 0 738 0 739 -347 0
c-192 0 -364 0 -383 0 l-36 1 -23 78 c-45 155 -107 308 -198 486 l-55 109 270
269 269 270 -521 523 -521 522 -271 -269 -270 -269 -130 65 c-149 75 -308 139
-446 181 l-98 30 -1 60 c0 33 0 205 0 383 l0 322 -739 0 -739 0 0 -327z m1004
-1318 c747 -102 1366 -660 1554 -1400 17 -70 35 -169 36 -200 0 -7 -171 -11
-490 -12 -269 0 -497 -3 -505 -5 -52 -14 -69 -24 -102 -61 -49 -55 -86 -125
-143 -272 -61 -157 -87 -215 -95 -215 -4 0 -10 19 -14 43 -9 64 -25 187 -30
237 -6 55 -14 112 -27 205 -5 39 -12 88 -15 110 -11 81 -54 266 -81 346 -63
191 -174 276 -311 239 -155 -41 -246 -266 -352 -867 -60 -343 -95 -492 -111
-476 -12 12 -25 97 -53 338 -4 28 -20 158 -36 290 -17 132 -33 258 -35 280 -3
22 -8 58 -10 80 -3 22 -8 60 -11 85 -11 102 -54 329 -74 392 -42 136 -125 213
-218 203 -56 -7 -89 -24 -135 -72 -61 -62 -106 -167 -207 -478 -71 -220 -132
-389 -142 -396 -11 -7 -505 -6 -512 2 -3 3 6 60 19 127 114 562 486 1045 1000
1298 120 60 325 135 405 149 18 3 36 7 39 9 3 2 26 7 51 10 25 3 56 8 70 11
14 3 61 8 105 12 44 3 81 6 82 7 9 7 258 -7 348 -19z m-1151 -1443 c3 -5 8
-31 11 -58 3 -27 8 -60 10 -74 2 -14 7 -56 11 -95 3 -38 8 -78 9 -87 2 -9 7
-48 10 -85 4 -37 8 -79 10 -93 2 -14 6 -50 10 -80 53 -481 117 -791 190 -916
50 -86 133 -132 218 -120 92 13 157 90 224 268 33 88 126 433 137 512 4 21 8
41 10 45 2 3 7 22 10 41 3 19 8 44 10 55 3 11 25 121 51 245 25 123 48 226 50
229 3 2 7 2 10 -1 5 -5 21 -86 30 -155 3 -24 7 -60 10 -80 2 -21 9 -78 15
-128 6 -49 13 -103 15 -120 2 -16 7 -52 10 -80 41 -342 96 -536 164 -584 16
-12 52 -26 79 -32 47 -11 54 -10 107 15 102 50 156 142 328 551 58 138 111
262 118 278 l12 27 444 0 445 0 -7 -72 c-3 -40 -8 -80 -10 -88 -2 -8 -7 -35
-10 -60 -17 -121 -89 -344 -155 -479 -104 -212 -205 -354 -367 -517 -207 -207
-464 -366 -738 -454 -256 -82 -490 -109 -755 -86 -41 3 -84 8 -95 10 -11 2
-40 7 -65 11 -76 11 -230 54 -328 90 -440 165 -804 491 -1016 912 -102 202
-172 444 -191 656 l-7 77 273 1 c321 1 392 5 429 24 63 32 132 148 195 325 64
177 74 196 89 172z"/>
</g>
</svg>
